<svg width="102" height="36" viewBox="0 0 102 36" fill="none" xmlns="http://www.w3.org/2000/svg">
<path fill-rule="evenodd" clip-rule="evenodd" d="M12.6399 2.76367C11.1353 3.51293 8.73628 4.85873 7.1691 6.08545C3.34307 9.07939 0 12.3258 0 16.3957C0 20.7033 3.28128 24.2273 8.34673 24.8722C9.35184 24.9998 8.50044 25.9845 8.50044 25.9845C8.50044 25.9845 9.16537 25.7645 9.61857 25.6064C9.75005 25.5604 9.9678 26.0255 9.9678 26.0255C9.9678 26.0255 10.3758 25.5433 10.4184 25.5762C10.9089 25.9578 11.5647 26.0255 11.5647 26.0255C11.5647 26.0255 10.6994 25.0033 11.7772 24.8556C16.7726 24.1693 20 20.6681 20 16.3957C20 12.1077 17.4921 9.1138 12.6264 5.89447C11.998 5.47886 11.9268 4.3051 12.6399 2.76367ZM10.7329 7.07944C13.3165 9.47761 14.6083 12.4742 14.6083 15.4709C14.6083 18.4671 13.3165 21.4638 10.7329 23.862C14.383 19.2887 15.1493 12.1429 10.7329 7.07944ZM9.2475 7.07866C6.66392 9.47683 5.37211 12.4735 5.37211 15.4701C5.37211 18.4668 6.66392 21.463 9.2475 23.8612C5.59703 19.2879 4.83115 12.1421 9.2475 7.07866ZM9.9904 23.5755C10.1859 20.8193 10.2839 18.0631 10.2839 15.3066C10.2839 12.5504 10.1859 9.79425 9.9904 7.03808C9.42041 12.5504 9.42041 18.0631 9.9904 23.5755ZM13.2114 7.97754C16.0794 10.4322 17.7355 13.2599 17.8692 15.9897C18.0026 18.7192 16.6136 21.3509 13.3915 23.4131C19.0699 18.3496 17.8078 12.7553 13.2114 7.97754ZM6.76901 7.97716C3.901 10.4314 2.24491 13.2591 2.11117 15.989C1.97743 18.7184 3.36642 21.3501 6.58856 23.4123C0.910551 18.3489 2.17221 12.7545 6.76901 7.97716Z" fill="url(#paint0_linear_13839_10316)"/>
<path d="M29.963 23.426C25.6401 23.426 23.1161 21.5626 23 18.0763H27.7871C27.9612 19.2184 28.4544 19.8495 29.934 19.8495C31.2106 19.8495 31.7908 19.3386 31.7908 18.5572C31.7908 17.8058 31.0655 17.4452 28.9766 17.1447C24.9148 16.6037 23.2031 15.3715 23.2031 12.0955C23.2031 8.60926 26.1914 6.92622 29.7019 6.92622C33.4445 6.92622 36.0557 8.24861 36.4038 12.0054H31.7038C31.5007 10.9535 30.9495 10.4426 29.7599 10.4426C28.6284 10.4426 28.0482 10.9535 28.0482 11.6748C28.0482 12.4261 28.7445 12.7267 30.6013 12.9671C34.8081 13.5081 36.839 14.6502 36.839 18.0162C36.839 21.7429 34.1698 23.426 29.963 23.426ZM47.8267 28.2891V20.608C47.0693 22.1082 45.3798 23.3984 43.0786 23.3984C39.554 23.3984 36.6702 20.7881 36.6702 15.3573V15.1173C36.6702 9.7766 39.5249 6.92622 43.1369 6.92622C45.5255 6.92622 46.9528 7.97636 47.8267 9.56657V7.34628H53.0408V28.2891H47.8267ZM44.7982 19.2576C46.662 19.2576 47.809 17.9033 47.809 15.2247V14.9839C47.809 12.3354 46.748 10.9209 44.8555 10.9209C42.9343 10.9209 41.9021 12.2752 41.9021 15.014V15.2548C41.9021 17.9033 43.0204 19.2576 44.7982 19.2576ZM59.3532 23.2523C56.4087 23.2523 54.2221 21.4006 54.2221 17.4581V7.27358H59.4407V16.592C59.4407 18.3542 60.1112 19.2203 61.5981 19.2203C63.1724 19.2203 64.1928 18.2646 64.1928 16.2635V7.27358H69.4113V22.8939H64.1928V20.4747C63.3765 22.0875 61.8896 23.2523 59.3532 23.2523ZM75.0537 23.426C72.3261 23.426 69.9176 22.0435 69.9176 18.7075C69.9176 15.0108 72.9354 13.5682 77.9845 13.5682H79.4353V13.2076C79.4353 11.7048 79.0871 10.7131 77.4331 10.7131C76.0113 10.7131 75.489 11.5846 75.3729 12.5764H70.498C70.7301 8.78958 73.6028 6.92622 77.7523 6.92622C81.9309 6.92622 84.6005 8.69942 84.6005 12.877V23.0653H79.5514V21.232C78.826 22.3741 77.4912 23.426 75.0537 23.426ZM76.9511 19.605C78.4331 19.605 79.5374 18.7497 79.5374 17.4225V16.4787H78.1716C76.0793 16.4787 75.1494 16.8916 75.1494 18.1598C75.1494 19.0446 75.7306 19.605 76.9511 19.605ZM91.6839 23.426C88.1593 23.426 85.2755 20.8187 85.2755 15.3944V15.1546C85.2755 9.82024 88.1302 6.97322 91.7422 6.97322C94.1308 6.97322 95.5581 8.02212 96.432 9.61045V0.5H101.646V23.0664H96.432V20.519C95.6746 22.1373 93.9851 23.426 91.6839 23.426ZM93.4035 19.2576C95.2673 19.2576 96.4143 17.9033 96.4143 15.2247V14.9839C96.4143 12.3354 95.3533 10.9209 93.4608 10.9209C91.5396 10.9209 90.5073 12.2752 90.5073 15.014V15.2548C90.5073 17.9033 91.6256 19.2576 93.4035 19.2576Z" fill="url(#paint1_linear_13839_10316)"/>
<path d="M62.1259 34.2891V29.9254H62.763V31.5469H62.8013C62.8382 31.4787 62.8915 31.3999 62.9611 31.3104C63.0307 31.2209 63.1273 31.1428 63.2509 31.076C63.3745 31.0078 63.5378 30.9737 63.7409 30.9737C64.0051 30.9737 64.2409 31.0405 64.4483 31.174C64.6557 31.3075 64.8184 31.5 64.9363 31.7514C65.0556 32.0028 65.1152 32.3054 65.1152 32.6591C65.1152 33.0128 65.0563 33.3161 64.9384 33.5689C64.8205 33.8203 64.6586 34.0142 64.4526 34.1506C64.2466 34.2855 64.0115 34.353 63.7473 34.353C63.5485 34.353 63.3858 34.3196 63.2594 34.2528C63.1344 34.1861 63.0364 34.108 62.9654 34.0185C62.8944 33.929 62.8397 33.8494 62.8013 33.7798H62.748V34.2891H62.1259ZM62.7502 32.6527C62.7502 32.8828 62.7836 33.0845 62.8503 33.2578C62.9171 33.4311 63.0137 33.5668 63.1401 33.6648C63.2665 33.7614 63.4213 33.8097 63.6046 33.8097C63.7949 33.8097 63.954 33.7592 64.0819 33.6584C64.2097 33.5561 64.3063 33.4176 64.3716 33.2429C64.4384 33.0682 64.4718 32.8714 64.4718 32.6527C64.4718 32.4368 64.4391 32.2429 64.3738 32.071C64.3098 31.8991 64.2132 31.7635 64.084 31.6641C63.9561 31.5646 63.7963 31.5149 63.6046 31.5149C63.4199 31.5149 63.2637 31.5625 63.1358 31.6577C63.0094 31.7528 62.9135 31.8857 62.8482 32.0561C62.7828 32.2266 62.7502 32.4254 62.7502 32.6527ZM66.122 35.5163C66.0268 35.5163 65.9402 35.5085 65.862 35.4929C65.7839 35.4787 65.7257 35.4631 65.6873 35.446L65.8407 34.924C65.9572 34.9553 66.0609 34.9688 66.1518 34.9645C66.2427 34.9602 66.323 34.9261 66.3926 34.8622C66.4636 34.7983 66.5261 34.6939 66.5801 34.549L66.6589 34.3317L65.4615 31.0163H66.1433L66.9721 33.5561H67.0062L67.835 31.0163H68.519L67.1703 34.7259C67.1078 34.8963 67.0282 35.0405 66.9316 35.1584C66.835 35.2777 66.72 35.3672 66.5865 35.4268C66.4529 35.4865 66.2981 35.5163 66.122 35.5163Z" fill="black"/>
<path d="M69.6465 34.4837V29.5286H70.5174V31.6263H72.7451V29.5286H73.6183V34.4837H72.7451V32.3787H70.5174V34.4837H69.6465Z" fill="black"/>
<path d="M75.5655 34.5587C75.337 34.5587 75.1312 34.5167 74.9481 34.4329C74.7666 34.3474 74.6226 34.2216 74.5162 34.0554C74.4114 33.8893 74.3589 33.6844 74.3589 33.4409C74.3589 33.2312 74.3965 33.0578 74.4716 32.9207C74.5467 32.7836 74.6492 32.6739 74.7791 32.5916C74.909 32.5094 75.0553 32.4473 75.2181 32.4053C75.3824 32.3618 75.5522 32.3303 75.7275 32.311C75.9387 32.2884 76.1101 32.2682 76.2416 32.2505C76.373 32.2311 76.4685 32.2021 76.5279 32.1634C76.589 32.1231 76.6195 32.061 76.6195 31.9771V31.9626C76.6195 31.7803 76.5671 31.6392 76.4622 31.5392C76.3574 31.4392 76.2063 31.3892 76.0092 31.3892C75.801 31.3892 75.6359 31.4359 75.5139 31.5295C75.3934 31.6231 75.312 31.7335 75.2697 31.861L74.4763 31.7448C74.5389 31.519 74.6422 31.3303 74.7862 31.1787C74.9301 31.0254 75.1062 30.9109 75.3143 30.8351C75.5225 30.7577 75.7525 30.719 76.0045 30.719C76.1782 30.719 76.3511 30.7399 76.5232 30.7819C76.6954 30.8238 76.8527 30.8932 76.9951 30.99C77.1375 31.0851 77.2517 31.215 77.3378 31.3795C77.4254 31.544 77.4693 31.7497 77.4693 31.9965V34.4837H76.6524V33.9732H76.6242C76.5725 34.0764 76.4998 34.1732 76.4059 34.2635C76.3135 34.3522 76.197 34.424 76.0561 34.4788C75.9168 34.5321 75.7533 34.5587 75.5655 34.5587ZM75.7862 33.9151C75.9567 33.9151 76.1046 33.8804 76.2298 33.8111C76.355 33.7401 76.4513 33.6465 76.5185 33.5304C76.5874 33.4143 76.6218 33.2877 76.6218 33.1505V32.7126C76.5952 32.7352 76.5498 32.7562 76.4857 32.7755C76.4231 32.7949 76.3527 32.8118 76.2744 32.8263C76.1962 32.8409 76.1187 32.8538 76.042 32.865C75.9653 32.8763 75.8988 32.886 75.8425 32.8941C75.7157 32.9118 75.6023 32.9409 75.5021 32.9812C75.402 33.0215 75.3229 33.078 75.265 33.1505C75.2071 33.2215 75.1782 33.3135 75.1782 33.4264C75.1782 33.5877 75.2353 33.7094 75.3495 33.7917C75.4638 33.874 75.6093 33.9151 75.7862 33.9151Z" fill="black"/>
<path d="M78.3613 34.4837V29.5286H79.211V31.3819H79.2462C79.2901 31.2916 79.3519 31.1956 79.4317 31.094C79.5115 30.9908 79.6195 30.9029 79.7556 30.8303C79.8918 30.7561 80.0655 30.719 80.2768 30.719C80.5553 30.719 80.8065 30.7924 81.0303 30.9391C81.2556 31.0843 81.434 31.2996 81.5655 31.5851C81.6985 31.869 81.765 32.2174 81.765 32.6304C81.765 33.0384 81.7001 33.3852 81.5702 33.6707C81.4403 33.9562 81.2635 34.174 81.0397 34.324C80.8159 34.474 80.5624 34.549 80.2791 34.549C80.0725 34.549 79.9012 34.5135 79.765 34.4425C79.6289 34.3716 79.5193 34.2861 79.4364 34.1861C79.355 34.0845 79.2916 33.9885 79.2462 33.8982H79.197V34.4837H78.3613ZM79.1946 32.6255C79.1946 32.8659 79.2275 33.0763 79.2932 33.257C79.3605 33.4377 79.4567 33.5788 79.5819 33.6804C79.7087 33.7804 79.8621 33.8304 80.042 33.8304C80.2298 33.8304 80.3871 33.7788 80.5139 33.6756C80.6406 33.5707 80.7361 33.428 80.8002 33.2473C80.866 33.0651 80.8988 32.8578 80.8988 32.6255C80.8988 32.3949 80.8668 32.19 80.8026 32.011C80.7384 31.8319 80.643 31.6916 80.5162 31.59C80.3894 31.4884 80.2314 31.4376 80.042 31.4376C79.8605 31.4376 79.7063 31.4868 79.5796 31.5851C79.4528 31.6835 79.3566 31.8214 79.2909 31.9989C79.2267 32.1763 79.1946 32.3852 79.1946 32.6255Z" fill="black"/>
<path d="M83.525 34.5587C83.2965 34.5587 83.0907 34.5167 82.9076 34.4329C82.7261 34.3474 82.5821 34.2216 82.4757 34.0554C82.3709 33.8893 82.3184 33.6844 82.3184 33.4409C82.3184 33.2312 82.356 33.0578 82.4311 32.9207C82.5062 32.7836 82.6087 32.6739 82.7386 32.5916C82.8685 32.5094 83.0148 32.4473 83.1776 32.4053C83.3419 32.3618 83.5117 32.3303 83.687 32.311C83.8982 32.2884 84.0696 32.2682 84.2011 32.2505C84.3325 32.2311 84.428 32.2021 84.4874 32.1634C84.5485 32.1231 84.579 32.061 84.579 31.9771V31.9626C84.579 31.7803 84.5266 31.6392 84.4217 31.5392C84.3169 31.4392 84.1658 31.3892 83.9687 31.3892C83.7605 31.3892 83.5954 31.4359 83.4734 31.5295C83.3529 31.6231 83.2715 31.7335 83.2292 31.861L82.4358 31.7448C82.4984 31.519 82.6017 31.3303 82.7457 31.1787C82.8896 31.0254 83.0657 30.9109 83.2738 30.8351C83.482 30.7577 83.712 30.719 83.964 30.719C84.1377 30.719 84.3106 30.7399 84.4828 30.7819C84.6549 30.8238 84.8122 30.8932 84.9546 30.99C85.097 31.0851 85.2112 31.215 85.2973 31.3795C85.3849 31.544 85.4288 31.7497 85.4288 31.9965V34.4837H84.6119V33.9732H84.5837C84.532 34.0764 84.4593 34.1732 84.3654 34.2635C84.273 34.3522 84.1565 34.424 84.0156 34.4788C83.8763 34.5321 83.7128 34.5587 83.525 34.5587ZM83.7457 33.9151C83.9162 33.9151 84.0641 33.8804 84.1893 33.8111C84.3145 33.7401 84.4108 33.6465 84.4781 33.5304C84.5469 33.4143 84.5813 33.2877 84.5813 33.1505V32.7126C84.5547 32.7352 84.5094 32.7562 84.4452 32.7755C84.3826 32.7949 84.3122 32.8118 84.2339 32.8263C84.1557 32.8409 84.0782 32.8538 84.0015 32.865C83.9248 32.8763 83.8583 32.886 83.802 32.8941C83.6752 32.9118 83.5618 32.9409 83.4616 32.9812C83.3615 33.0215 83.2824 33.078 83.2245 33.1505C83.1666 33.2215 83.1377 33.3135 83.1377 33.4264C83.1377 33.5877 83.1948 33.7094 83.309 33.7917C83.4233 33.874 83.5688 33.9151 83.7457 33.9151Z" fill="black"/>
<path d="M86.2832 34.4837V30.7674H87.1072V31.3867H87.1447C87.2105 31.1722 87.3231 31.0069 87.4828 30.8908C87.6439 30.773 87.8278 30.7141 88.0344 30.7141C88.0813 30.7141 88.1338 30.7166 88.1917 30.7214C88.2511 30.7246 88.3004 30.7303 88.3396 30.7383V31.544C88.3036 31.5311 88.2464 31.5198 88.1682 31.5101C88.0915 31.4989 88.0172 31.4932 87.9452 31.4932C87.7903 31.4932 87.651 31.5279 87.5274 31.5972C87.4053 31.665 87.309 31.7593 87.2386 31.8803C87.1682 32.0013 87.133 32.1408 87.133 32.2989V34.4837H86.2832Z" fill="black"/>
<path d="M88.9041 34.4837V30.7674H89.7539V34.4837H88.9041ZM89.3313 30.2399C89.1968 30.2399 89.081 30.1939 88.9839 30.102C88.8869 30.0085 88.8384 29.8964 88.8384 29.7657C88.8384 29.6334 88.8869 29.5213 88.9839 29.4294C89.081 29.3358 89.1968 29.2891 89.3313 29.2891C89.4675 29.2891 89.5833 29.3358 89.6788 29.4294C89.7758 29.5213 89.8243 29.6334 89.8243 29.7657C89.8243 29.8964 89.7758 30.0085 89.6788 30.102C89.5833 30.1939 89.4675 30.2399 89.3313 30.2399Z" fill="black"/>
<path d="M90.6277 35.8773V30.7674H91.4634V31.3819H91.5127C91.5565 31.2916 91.6183 31.1956 91.6981 31.094C91.7779 30.9908 91.8859 30.9029 92.0221 30.8303C92.1582 30.7561 92.3319 30.719 92.5432 30.719C92.8218 30.719 93.0729 30.7924 93.2967 30.9391C93.5221 31.0843 93.7005 31.2996 93.8319 31.5851C93.965 31.869 94.0315 32.2174 94.0315 32.6304C94.0315 33.0384 93.9665 33.3852 93.8366 33.6707C93.7067 33.9562 93.5299 34.174 93.3061 34.324C93.0823 34.474 92.8288 34.549 92.5455 34.549C92.339 34.549 92.1676 34.5135 92.0315 34.4425C91.8953 34.3716 91.7858 34.2861 91.7028 34.1861C91.6214 34.0845 91.5581 33.9885 91.5127 33.8982H91.4775V35.8773H90.6277ZM91.461 32.6255C91.461 32.8659 91.4939 33.0763 91.5596 33.257C91.6269 33.4377 91.7232 33.5788 91.8484 33.6804C91.9751 33.7804 92.1285 33.8304 92.3085 33.8304C92.4962 33.8304 92.6535 33.7788 92.7803 33.6756C92.907 33.5707 93.0025 33.428 93.0667 33.2473C93.1324 33.0651 93.1653 32.8578 93.1653 32.6255C93.1653 32.3949 93.1332 32.19 93.069 32.011C93.0049 31.8319 92.9094 31.6916 92.7826 31.59C92.6559 31.4884 92.4978 31.4376 92.3085 31.4376C92.1269 31.4376 91.9728 31.4868 91.846 31.5851C91.7193 31.6835 91.623 31.8214 91.5573 31.9989C91.4931 32.1763 91.461 32.3852 91.461 32.6255Z" fill="black"/>
<path d="M95.7967 34.5587C95.5682 34.5587 95.3624 34.5167 95.1793 34.4329C94.9978 34.3474 94.8538 34.2216 94.7474 34.0554C94.6426 33.8893 94.5901 33.6844 94.5901 33.4409C94.5901 33.2312 94.6277 33.0578 94.7028 32.9207C94.7779 32.7836 94.8804 32.6739 95.0103 32.5916C95.1402 32.5094 95.2865 32.4473 95.4493 32.4053C95.6136 32.3618 95.7834 32.3303 95.9587 32.311C96.17 32.2884 96.3413 32.2682 96.4728 32.2505C96.6042 32.2311 96.6997 32.2021 96.7592 32.1634C96.8202 32.1231 96.8507 32.061 96.8507 31.9771V31.9626C96.8507 31.7803 96.7983 31.6392 96.6934 31.5392C96.5886 31.4392 96.4376 31.3892 96.2404 31.3892C96.0322 31.3892 95.8671 31.4359 95.7451 31.5295C95.6246 31.6231 95.5432 31.7335 95.5009 31.861L94.7075 31.7448C94.7701 31.519 94.8734 31.3303 95.0174 31.1787C95.1614 31.0254 95.3374 30.9109 95.5455 30.8351C95.7537 30.7577 95.9837 30.719 96.2357 30.719C96.4094 30.719 96.5823 30.7399 96.7545 30.7819C96.9266 30.8238 97.0839 30.8932 97.2263 30.99C97.3687 31.0851 97.4829 31.215 97.569 31.3795C97.6567 31.544 97.7005 31.7497 97.7005 31.9965V34.4837H96.8836V33.9732H96.8554C96.8038 34.0764 96.731 34.1732 96.6371 34.2635C96.5448 34.3522 96.4282 34.424 96.2873 34.4788C96.148 34.5321 95.9845 34.5587 95.7967 34.5587ZM96.0174 33.9151C96.188 33.9151 96.3358 33.8804 96.461 33.8111C96.5862 33.7401 96.6825 33.6465 96.7498 33.5304C96.8186 33.4143 96.8531 33.2877 96.8531 33.1505V32.7126C96.8265 32.7352 96.7811 32.7562 96.7169 32.7755C96.6543 32.7949 96.5839 32.8118 96.5056 32.8263C96.4274 32.8409 96.3499 32.8538 96.2732 32.865C96.1966 32.8763 96.1301 32.886 96.0737 32.8941C95.947 32.9118 95.8335 32.9409 95.7333 32.9812C95.6332 33.0215 95.5542 33.078 95.4963 33.1505C95.4383 33.2215 95.4094 33.3135 95.4094 33.4264C95.4094 33.5877 95.4665 33.7094 95.5808 33.7917C95.695 33.874 95.8405 33.9151 96.0174 33.9151Z" fill="black"/>
<path d="M98.954 35.8773C98.8382 35.8773 98.731 35.8676 98.6324 35.8483C98.5354 35.8305 98.4579 35.8096 98.4 35.7854L98.5972 35.1031C98.7208 35.1402 98.8311 35.1579 98.9282 35.1563C99.0252 35.1547 99.1105 35.1232 99.184 35.0619C99.2592 35.0023 99.3225 34.9022 99.3742 34.7619L99.447 34.5611L98.1394 30.7674H99.0409L99.8718 33.574H99.9094L100.743 30.7674H101.646L100.203 34.9337C100.136 35.1305 100.046 35.299 99.9352 35.4394C99.8241 35.5813 99.688 35.6894 99.5268 35.7636C99.3671 35.8394 99.1762 35.8773 98.954 35.8773Z" fill="black"/>
<defs>
<linearGradient id="paint0_linear_13839_10316" x1="0" y1="16.6253" x2="99.4714" y2="16.6253" gradientUnits="userSpaceOnUse">
<stop stop-color="#FF4C1D"/>
<stop offset="1" stop-color="#9B0063"/>
</linearGradient>
<linearGradient id="paint1_linear_13839_10316" x1="23" y1="14.3947" x2="101.645" y2="14.3947" gradientUnits="userSpaceOnUse">
<stop stop-color="#FF4C1D"/>
<stop offset="1" stop-color="#9B0063"/>
</linearGradient>
</defs>
</svg>
